<?xml version="1.0" standalone="no"?><!DOCTYPE svg PUBLIC "-//W3C//DTD SVG 1.1//EN" "http://www.w3.org/Graphics/SVG/1.1/DTD/svg11.dtd"><svg t="1618383796473" class="icon" viewBox="0 0 1024 1024" version="1.1" xmlns="http://www.w3.org/2000/svg" p-id="2091" width="32" height="32" xmlns:xlink="http://www.w3.org/1999/xlink"><defs><style type="text/css"></style></defs><path d="M64 128l128 0 0 128-128 0 0-128Z" p-id="2092" fill="#707070"></path><path d="M320 128l640 0 0 128-640 0 0-128Z" p-id="2093" fill="#707070"></path><path d="M64 448l128 0 0 128-128 0 0-128Z" p-id="2094" fill="#707070"></path><path d="M320 448l640 0 0 128-640 0 0-128Z" p-id="2095" fill="#707070"></path><path d="M64 768l128 0 0 128-128 0 0-128Z" p-id="2096" fill="#707070"></path><path d="M320 768l640 0 0 128-640 0 0-128Z" p-id="2097" fill="#707070"></path></svg>