<?xml version="1.0" standalone="no"?><!DOCTYPE svg PUBLIC "-//W3C//DTD SVG 1.1//EN" "http://www.w3.org/Graphics/SVG/1.1/DTD/svg11.dtd"><svg t="1618197585583" class="icon" viewBox="0 0 1024 1024" version="1.1" xmlns="http://www.w3.org/2000/svg" p-id="3547" xmlns:xlink="http://www.w3.org/1999/xlink" width="40" height="40"><defs><style type="text/css"></style></defs><path d="M673.3 526.3c59.6-47.5 97.9-120.6 97.9-202.6 0-143-116.3-259.3-259.3-259.3S252.6 180.7 252.6 323.7c0 82 38.3 155 97.9 202.6-162 60.7-277 209.7-277 383.8 0 27.3 22.1 49.4 49.4 49.4s49.4-22.1 49.4-49.4c0-173.3 152.3-314.4 339.5-314.4s339.5 141 339.5 314.4c0 27.3 22.1 49.4 49.4 49.4 27.3 0 49.4-22.1 49.4-49.4 0.2-174.1-114.8-323-276.8-383.8zM512 163.3c88.6 0 160.5 71.8 160.5 160.5 0 88.6-71.8 160.5-160.5 160.5-88.6 0-160.5-71.8-160.5-160.5S423.4 163.3 512 163.3z" p-id="3548"></path><path d="M512 893c-27.3 0-49.4-22.1-49.4-49.4V716.8c0-27.3 22.1-49.4 49.4-49.4 27.3 0 49.4 22.1 49.4 49.4v126.8c0 27.3-22.1 49.4-49.4 49.4z" p-id="3549"></path></svg>